<svg width="24" height="24" viewBox="0 0 24 24" fill="none" xmlns="http://www.w3.org/2000/svg">
<g clip-path="url(#clip0_20_11)">
<path d="M12 0H11.921C10.261 0 8.68201 0.349 7.25401 0.978L7.32801 0.949C5.90786 1.55945 4.61586 2.43277 3.52001 3.523C2.44859 4.59708 1.58656 5.8613 0.97801 7.251L0.94701 7.33C0.316935 8.77757 -0.005545 10.3403 9.51713e-06 11.919V12.005V12.001V12.08C9.51713e-06 13.74 0.34901 15.319 0.97801 16.747L0.94901 16.673C1.55912 18.0926 2.43173 19.3842 3.52101 20.48C4.59547 21.5514 5.86001 22.4135 7.25001 23.022L7.32901 23.053C8.68301 23.653 10.262 24.002 11.922 24.002H12.005H12.001H12.08C13.74 24.002 15.319 23.653 16.747 23.024L16.673 23.053C18.0934 22.4428 19.3857 21.5698 20.482 20.48C21.5534 19.4059 22.4155 18.1417 23.024 16.752L23.055 16.673C23.655 15.319 24.004 13.741 24.004 12.08V11.922C24.004 10.262 23.655 8.683 23.026 7.255L23.055 7.329C22.4443 5.90984 21.5714 4.6186 20.482 3.523C19.4079 2.45158 18.1437 1.58955 16.754 0.981L16.675 0.95C15.321 0.35 13.741 0 12.08 0H11.997H12.001H12ZM12.64 22.79V20.703L17.833 18.07C17.894 18.0401 17.9468 17.9958 17.987 17.941L17.988 17.94C18.0267 17.8838 18.0472 17.8172 18.047 17.749V17.738V17.739V16.553C18.272 16.471 18.459 16.327 18.59 16.141L18.592 16.137C18.725 15.958 18.806 15.733 18.806 15.489V15.371C18.7816 15.0853 18.651 14.8191 18.44 14.625L18.439 14.624C18.2362 14.4327 17.9678 14.3264 17.689 14.327H17.667H17.668H17.648C17.34 14.327 17.061 14.454 16.862 14.659C16.657 14.859 16.53 15.137 16.53 15.446V15.467V15.466V15.525C16.532 15.555 16.541 15.582 16.554 15.606V15.605C16.567 15.827 16.65 16.028 16.781 16.188L16.78 16.186C16.913 16.349 17.084 16.475 17.281 16.55L17.289 16.553V17.502L12.64 19.874V17.932L14.679 16.983C14.7424 16.9512 14.7989 16.907 14.845 16.853L14.846 16.852C14.8919 16.7978 14.9171 16.729 14.917 16.658V13.425L18.71 11.291C18.7713 11.2605 18.8211 11.2111 18.852 11.15L18.853 11.148C18.8837 11.0897 18.8999 11.0249 18.9 10.959V10.058C19.123 9.979 19.309 9.84 19.443 9.661L19.445 9.658C19.578 9.481 19.659 9.257 19.659 9.014V8.974C19.659 8.666 19.532 8.387 19.327 8.188C19.2272 8.08287 19.107 7.99921 18.9737 7.94212C18.8405 7.88504 18.697 7.85573 18.552 7.856H18.4C18.1253 7.88298 17.8713 8.01391 17.69 8.222L17.689 8.223C17.505 8.42785 17.4035 8.69364 17.404 8.969V8.994V8.993V9.013C17.404 9.256 17.484 9.479 17.62 9.659L17.618 9.656C17.755 9.838 17.94 9.977 18.156 10.053L18.164 10.056V10.744L14.346 12.878C14.2956 12.9129 14.2519 12.9566 14.217 13.007L14.216 13.009C14.1803 13.0637 14.1612 13.1276 14.161 13.193V13.21V13.209V16.409L12.641 17.12V10.148L15.841 8.582C15.9042 8.55019 15.9572 8.50135 15.994 8.441L15.995 8.439C16.0326 8.38307 16.0531 8.31739 16.054 8.25V7.04C16.277 6.961 16.463 6.822 16.597 6.643L16.599 6.64C16.732 6.463 16.813 6.239 16.813 5.996V5.975V5.976V5.915C16.8131 5.90436 16.811 5.89382 16.8069 5.88402C16.8028 5.87422 16.7967 5.86536 16.789 5.858C16.7599 5.58138 16.6296 5.32529 16.423 5.139L16.422 5.138C16.2239 4.94694 15.9592 4.84043 15.684 4.841H15.556C15.2771 4.87144 15.0202 5.00652 14.837 5.219L14.836 5.22C14.6449 5.42454 14.5387 5.69409 14.539 5.974V6.097C14.571 6.324 14.659 6.525 14.79 6.693L14.788 6.69C14.915 6.857 15.089 6.981 15.29 7.044L15.297 7.046V8.018L12.641 9.322V5.288C12.866 5.206 13.053 5.062 13.184 4.876L13.186 4.872C13.319 4.693 13.4 4.468 13.4 4.224V4.2C13.4 3.892 13.273 3.613 13.068 3.414C12.9658 3.30875 12.8434 3.22513 12.7082 3.1681C12.573 3.11107 12.4277 3.08179 12.281 3.082H12.26H12.261H12.241C11.933 3.082 11.654 3.209 11.455 3.414C11.25 3.614 11.123 3.892 11.123 4.201V4.222V4.221V4.339C11.153 4.562 11.242 4.76 11.373 4.922L11.371 4.92C11.504 5.083 11.675 5.209 11.872 5.284L11.88 5.287V11.856L10.006 10.86V7.865C10.0059 7.80813 9.98925 7.75252 9.95801 7.705L9.95901 7.706C9.93088 7.66363 9.89909 7.62381 9.86401 7.587L8.55801 6.589C8.58952 6.52688 8.61304 6.46103 8.62801 6.393L8.62901 6.387C8.64401 6.32 8.65301 6.244 8.65301 6.165V6.141C8.65301 5.833 8.52601 5.554 8.32101 5.355C8.21873 5.25015 8.09649 5.16684 7.96149 5.10999C7.8265 5.05314 7.68149 5.0239 7.53501 5.024H7.52001H7.52101H7.50101C7.19301 5.024 6.91401 5.151 6.71501 5.356C6.51001 5.556 6.38301 5.834 6.38301 6.143V6.164V6.163V6.187C6.38301 6.492 6.50801 6.768 6.70901 6.967C6.90901 7.172 7.18701 7.299 7.49601 7.299H7.51701H7.51601H7.53101C7.6291 7.29925 7.72652 7.28268 7.81901 7.25L7.81301 7.252C7.92301 7.211 8.01301 7.171 8.10001 7.127L8.08501 7.134L9.24701 8.059V11.094C9.24671 11.1583 9.26782 11.221 9.30701 11.272L9.30601 11.271C9.34559 11.3256 9.39772 11.3698 9.45801 11.4L9.46001 11.401L11.879 12.681V15.1L7.82401 13.226L7.89501 11.756V11.732C7.89531 11.6677 7.8742 11.605 7.83501 11.554L7.83601 11.555C7.79643 11.5004 7.7443 11.4562 7.68401 11.426L7.68201 11.425L5.83101 10.455C5.84697 10.4042 5.85506 10.3513 5.85501 10.298V10.098C5.82591 9.82138 5.69555 9.56529 5.48901 9.379L5.48801 9.378C5.28483 9.18579 5.0157 9.07878 4.73601 9.079H4.71801H4.71901H4.71201C4.40701 9.079 4.13201 9.206 3.93701 9.411C3.72901 9.611 3.59901 9.892 3.59901 10.203V10.218V10.217V10.335C3.62801 10.62 3.76301 10.869 3.96501 11.045L3.96601 11.046C4.15901 11.223 4.41701 11.331 4.70101 11.331H4.83201C4.94489 11.3164 5.05565 11.2885 5.16201 11.248L5.15201 11.251C5.25601 11.211 5.34701 11.159 5.42701 11.095L5.42501 11.097L7.13201 11.977L7.08501 13.447V13.455C7.08501 13.53 7.10201 13.6 7.13301 13.663L7.13201 13.66C7.16743 13.7258 7.22579 13.7764 7.29601 13.802L7.29801 13.803L11.875 15.937V22.806C11.6697 22.806 11.468 22.798 11.27 22.782L10.665 22.735L10.736 18.371C10.7351 18.3028 10.7142 18.2364 10.676 18.18L10.677 18.181C10.6352 18.1163 10.5739 18.0666 10.502 18.039L10.5 18.038L7.63001 16.71V16.585C7.63001 16.28 7.50301 16.005 7.29801 15.81C7.19577 15.7048 7.07341 15.6211 6.93822 15.5641C6.80302 15.5071 6.65774 15.4778 6.51101 15.478H6.49001H6.49101H6.37701C6.10232 15.505 5.84833 15.6359 5.66701 15.844L5.66601 15.845C5.482 16.0499 5.38046 16.3156 5.38101 16.591V16.616V16.615V16.622C5.38101 16.927 5.50801 17.202 5.71301 17.397C5.90801 17.602 6.18301 17.729 6.48801 17.729H6.52701C6.68301 17.729 6.83201 17.696 6.96601 17.635L6.95901 17.638C7.09901 17.571 7.22001 17.491 7.32801 17.396L7.32601 17.398L9.98201 18.608V22.616C8.73311 22.3835 7.53612 21.9286 6.44801 21.273L6.49601 21.3C5.4458 20.677 4.50829 19.8811 3.72301 18.946L3.70901 18.929C2.9354 17.9981 2.31927 16.9468 1.88501 15.817L1.85901 15.741C1.40788 14.5601 1.1787 13.3061 1.18301 12.042V11.931C1.18301 10.437 1.49701 9.016 2.06301 7.73L2.03701 7.797C2.5876 6.51392 3.37615 5.3467 4.36101 4.357C5.33176 3.3902 6.47429 2.61291 7.73001 2.065L7.80101 2.037C9.1064 1.46776 10.5159 1.17625 11.94 1.181H12.001H11.998H12.062C13.556 1.181 14.977 1.495 16.263 2.061L16.196 2.035C17.4786 2.58478 18.6457 3.37191 19.636 4.355C20.6046 5.32512 21.3833 6.46774 21.932 7.724L21.96 7.795C22.5 9.013 22.814 10.434 22.814 11.929V11.996V11.993V12.057C22.814 13.501 22.522 14.877 21.994 16.129L22.02 16.06C21.506 17.3072 20.7689 18.4502 19.845 19.433L19.85 19.427C18.9427 20.3869 17.8677 21.1732 16.678 21.747L16.613 21.775C15.453 22.343 14.097 22.707 12.665 22.784L12.639 22.785L12.64 22.79Z" fill="black"/>
</g>
<defs>
<clipPath id="clip0_20_11">
<rect width="24" height="24" fill="white"/>
</clipPath>
</defs>
</svg>
