<svg width="18" height="18" viewBox="0 0 18 18" fill="none" xmlns="http://www.w3.org/2000/svg">
<path d="M14.5 18C14.0402 18.0013 13.5846 17.9114 13.1598 17.7355C12.7349 17.5596 12.3492 17.3011 12.025 16.975L7.89699 12.847C6.72558 13.1057 5.50542 13.0349 4.37177 12.6425C3.23812 12.2502 2.23526 11.5516 1.47434 10.6241C0.713432 9.69672 0.224194 8.5767 0.0608613 7.38824C-0.102472 6.19979 0.0664801 4.98931 0.548989 3.891L1.13699 2.551L5.29299 6.707C5.48331 6.88874 5.73634 6.99014 5.99949 6.99014C6.26264 6.99014 6.51567 6.88874 6.70599 6.707C6.799 6.61428 6.87282 6.50413 6.92321 6.38285C6.97361 6.26157 6.9996 6.13154 6.99969 6.00021C6.99978 5.86887 6.97398 5.73881 6.92375 5.61746C6.87353 5.49611 6.79987 5.38585 6.70699 5.293L2.55099 1.136L3.89099 0.548C4.9894 0.0657916 6.19987 -0.102897 7.38827 0.0606269C8.57667 0.224151 9.69659 0.713502 10.6239 1.47446C11.5513 2.23541 12.2499 3.23825 12.6422 4.37186C13.0346 5.50547 13.1055 6.72559 12.847 7.897L16.975 12.025C17.4645 12.5145 17.7979 13.1381 17.933 13.8171C18.068 14.4961 17.9987 15.1999 17.7338 15.8394C17.4689 16.479 17.0202 17.0256 16.4446 17.4102C15.869 17.7948 15.1923 18 14.5 18V18ZM8.46999 10.591L13.44 15.561C13.7255 15.8336 14.1052 15.9858 14.5 15.9858C14.8948 15.9858 15.2744 15.8336 15.56 15.561C15.6995 15.4219 15.8101 15.2566 15.8856 15.0746C15.9611 14.8926 16 14.6975 16 14.5005C16 14.3035 15.9611 14.1084 15.8856 13.9264C15.8101 13.7444 15.6995 13.5791 15.56 13.44L10.591 8.47L10.779 7.887C10.9986 7.21187 11.0553 6.49431 10.9443 5.79308C10.8333 5.09184 10.5578 4.42686 10.1404 3.85257C9.72295 3.27828 9.17546 2.81101 8.54271 2.48901C7.90996 2.16701 7.20996 1.99943 6.49999 2C6.41599 2 6.33266 2.00233 6.24999 2.007L8.12199 3.879C8.6844 4.44158 9.00035 5.20451 9.00035 6C9.00035 6.79549 8.6844 7.55842 8.12199 8.121C7.55049 8.6667 6.79068 8.97119 6.00049 8.97119C5.2103 8.97119 4.45049 8.6667 3.87899 8.121L2.00699 6.249C2.00232 6.33233 1.99999 6.416 1.99999 6.5C1.99943 7.21009 2.16704 7.91022 2.48909 8.54309C2.81114 9.17595 3.27848 9.72355 3.85286 10.1411C4.42724 10.5586 5.09233 10.8341 5.79368 10.9452C6.49504 11.0563 7.21272 10.9996 7.88799 10.78L8.46999 10.591Z" fill="black"/>
</svg>
