<svg width="22" height="28" viewBox="0 0 22 28" fill="none" xmlns="http://www.w3.org/2000/svg">
<path d="M20 3H17V2C16.9984 1.47005 16.7872 0.962265 16.4125 0.587535C16.0377 0.212805 15.5299 0.00158273 15 0H7C6.47005 0.00158273 5.96227 0.212805 5.58753 0.587535C5.2128 0.962265 5.00158 1.47005 5 2V3H2C1.47005 3.00158 0.962265 3.2128 0.587535 3.58753C0.212805 3.96227 0.00158273 4.47005 0 5V26C0.00158273 26.5299 0.212805 27.0377 0.587535 27.4125C0.962265 27.7872 1.47005 27.9984 2 28H9V26H2V5H5V8H17V5H20V10H22V5C21.9984 4.47005 21.7872 3.96227 21.4125 3.58753C21.0377 3.2128 20.5299 3.00158 20 3ZM15 6H7V2H15V6Z" fill="black"/>
</svg>
