<svg width="87" height="99" viewBox="0 0 87 99" fill="none" xmlns="http://www.w3.org/2000/svg">
<path d="M56.51 6.14193e-07L25.45 0.0160006C24.6423 0.015753 23.8594 0.294863 23.234 0.806001L1.284 16.781C0.882566 17.1094 0.559122 17.5228 0.33706 17.9915C0.114999 18.4602 -0.000129923 18.9724 1.10028e-07 19.491V84.75C1.10028e-07 85.6783 0.368749 86.5685 1.02513 87.2249C1.6815 87.8813 2.57174 88.25 3.5 88.25H6.03C5.965 82.13 6.019 76.004 6 69.883C5.716 66.439 8.62 63.114 12.082 62.984C13.388 62.982 14.694 62.984 16 62.982V46.5H21V62.982C34.333 62.97 47.666 62.97 61 62.969V46.5H65.984V62.967H69.068C72.374 62.708 75.594 65.321 75.943 68.633C76.055 75.156 75.99 81.687 76 88.213H78.484C79.4123 88.213 80.3025 87.8443 80.9589 87.1879C81.6152 86.5315 81.984 85.6413 81.984 84.713L81.998 51.5H83.25C84.1783 51.5 85.0685 51.1312 85.7249 50.4749C86.3813 49.8185 86.75 48.9283 86.75 48V38.5C86.75 37.5717 86.3813 36.6815 85.7249 36.0251C85.0685 35.3688 84.1783 35 83.25 35H81.99L81.984 19.451C81.9839 18.9325 81.8685 18.4204 81.6463 17.9519C81.424 17.4834 81.1005 17.0702 80.699 16.742L58.727 0.790001C58.1013 0.278645 57.318 -0.000477885 56.51 6.14193e-07V6.14193e-07ZM55.264 7L73.564 19.951H69.484C68.5557 19.951 67.6655 20.3197 67.0091 20.9761C66.3527 21.6325 65.984 22.5227 65.984 23.451V39.5H61V23H21V39.5H16V23.488C16 22.5597 15.6313 21.6695 14.9749 21.0131C14.3185 20.3567 13.4283 19.988 12.5 19.988H8.414L26.704 7.016L55.263 7H55.264ZM40.988 32.268H41C46.927 32.268 51.732 37.073 51.732 43C51.732 48.927 46.927 53.732 41 53.732C35.073 53.732 30.268 48.927 30.268 43C30.268 37.077 35.066 32.274 40.988 32.268ZM12.5 66.967C11.837 66.967 11.2011 67.2304 10.7322 67.6992C10.2634 68.1681 10 68.804 10 69.467V90C10 90.663 10.2634 91.2989 10.7322 91.7678C11.2011 92.2366 11.837 92.5 12.5 92.5H22.723V99H59.277V92.5H69.5C70.163 92.5 70.7989 92.2366 71.2678 91.7678C71.7366 91.2989 72 90.663 72 90V69.467C72 68.804 71.7366 68.1681 71.2678 67.6992C70.7989 67.2304 70.163 66.967 69.5 66.967H12.5ZM17.34 73.232H42.586V86.232H17.34V73.232ZM51.867 73.232H56.867V78.232H51.867V73.232ZM59.867 73.232H64.867V78.232H59.867V73.232ZM51.867 81.232H56.867V86.232H51.867V81.232ZM59.867 81.232H64.867V86.232H59.867V81.232Z" fill="black"/>
</svg>
